<?xml version="1.0" standalone="no"?>
<!DOCTYPE svg PUBLIC "-//W3C//DTD SVG 20010904//EN"
 "http://www.w3.org/TR/2001/REC-SVG-20010904/DTD/svg10.dtd">
<svg version="1.0" xmlns="http://www.w3.org/2000/svg"
 width="1280.000000pt" height="1184.000000pt" viewBox="0 0 1280.000000 1184.000000"
 preserveAspectRatio="xMidYMid meet">
<metadata>
Created by potrace 1.15, written by Peter Selinger 2001-2017
</metadata>
<g transform="translate(0.000000,1184.000000) scale(0.100000,-0.100000)"
fill="#000000" stroke="none">
<path d="M623 11818 c356 -811 419 -1466 202 -2096 -79 -230 -107 -291 -438
-932 -64 -124 -132 -263 -152 -310 -205 -474 -270 -880 -215 -1331 75 -600
232 -926 569 -1180 362 -272 933 -413 1666 -412 154 0 317 7 425 17 264 26
406 31 415 17 19 -32 -66 -79 -415 -231 -406 -176 -1095 -482 -1103 -490 -22
-19 399 -184 598 -234 384 -97 736 -104 1082 -22 125 29 134 5 63 -165 -298
-713 -384 -1288 -251 -1677 41 -117 84 -185 181 -282 67 -68 104 -95 175 -132
50 -25 113 -53 142 -62 84 -28 301 -140 407 -211 161 -107 287 -218 557 -492
263 -267 340 -330 449 -373 106 -41 100 -30 100 -198 0 -368 95 -620 296 -786
116 -96 234 -148 462 -205 l123 -31 486 0 c427 0 489 2 504 16 9 8 61 26 115
39 427 105 654 439 654 962 0 154 6 167 100 203 111 43 187 106 440 363 457
464 606 570 1035 737 365 142 534 477 495 986 -24 321 -106 637 -271 1051 -50
124 -89 232 -87 240 7 35 34 39 125 15 173 -44 282 -54 503 -49 269 7 513 49
780 138 168 55 380 148 380 167 0 7 -202 97 -1030 463 -492 216 -560 253 -531
282 5 5 106 -1 257 -17 754 -78 1286 -47 1749 103 523 168 873 496 1025 961
127 386 142 820 44 1259 -72 320 -183 598 -481 1196 -226 455 -316 676 -361
885 -103 480 -9 1127 253 1740 19 45 34 85 31 87 -9 9 -161 -125 -277 -244
-379 -392 -631 -816 -715 -1207 -22 -100 -29 -303 -15 -411 26 -192 56 -296
291 -975 102 -297 164 -515 197 -690 13 -71 17 -146 17 -295 0 -185 -2 -207
-27 -300 -51 -188 -191 -422 -282 -469 -32 -17 -58 -21 -130 -20 -143 0 -272
43 -768 253 -493 209 -807 321 -1100 393 -188 46 -171 35 -256 168 -113 176
-358 351 -669 474 -105 42 -349 115 -467 141 -114 24 -144 34 -154 53 -24 46
20 75 214 146 137 51 136 50 80 54 -75 5 -316 -15 -456 -39 -379 -64 -810
-221 -1173 -426 l-79 -45 -216 109 c-381 194 -697 302 -1054 363 -134 23 -377
43 -452 38 l-50 -3 90 -34 c222 -83 265 -107 265 -145 0 -28 -23 -41 -96 -56
-189 -37 -464 -126 -653 -209 -272 -120 -487 -292 -575 -461 -45 -84 -48 -86
-236 -130 -254 -59 -635 -195 -1080 -385 -623 -265 -776 -305 -909 -239 -109
55 -242 285 -298 516 -25 101 -24 413 0 548 43 232 104 431 305 990 166 462
213 689 191 929 -39 428 -290 897 -718 1343 -113 117 -279 268 -296 268 -4 0
-5 -6 -2 -12z"/>
</g>
</svg>
